<?xml version="1.0" standalone="no"?>
<!DOCTYPE svg PUBLIC "-//W3C//DTD SVG 20010904//EN"
 "http://www.w3.org/TR/2001/REC-SVG-20010904/DTD/svg10.dtd">
<svg version="1.0" xmlns="http://www.w3.org/2000/svg"
 width="264.000000pt" height="191.000000pt" viewBox="0 0 264.000000 191.000000"
 preserveAspectRatio="xMidYMid meet">

<g transform="translate(0.000000,191.000000) scale(0.100000,-0.100000)"
fill="#000000" stroke="none">
<path d="M95 1896 c-50 -22 -83 -69 -90 -128 -3 -29 -5 -416 -3 -860 3 -797 3
-807 24 -834 11 -15 33 -37 48 -48 27 -21 33 -21 1233 -24 l1206 -2 44 21 c83
40 78 -25 78 936 0 844 0 852 -21 879 -11 15 -33 37 -48 48 -27 21 -33 21
-1234 23 -988 2 -1213 0 -1237 -11z m2290 -125 c-96 -92 -1041 -881 -1051
-877 -11 4 -1053 845 -1094 882 -12 12 159 14 1075 14 1070 0 1089 0 1070 -19z
m115 -806 c0 -410 -4 -745 -9 -745 -4 0 -177 184 -384 409 l-376 409 377 335
c207 185 380 336 385 336 4 1 7 -334 7 -744z m-1958 406 c211 -178 384 -327
386 -332 3 -8 -762 -810 -780 -817 -4 -2 -8 330 -8 738 0 465 4 740 10 738 5
-1 181 -149 392 -327z m632 -529 c142 -113 159 -124 182 -115 10 4 72 51 136
105 64 54 121 98 126 98 5 0 35 -28 67 -62 32 -35 212 -217 399 -405 l340
-343 -1105 0 -1104 0 270 262 c149 144 335 326 415 405 80 79 149 143 154 143
4 0 58 -40 120 -88z"/>
</g>
</svg>
